<?xml version="1.0" encoding="UTF-8"?>
<svg xmlns="http://www.w3.org/2000/svg" version="1.1" viewBox="0 0 143 38">
  <defs>
    <style>
      .cls-1 {
        fill: none;
      }

      .cls-2 {
        fill: #fff;
      }
    </style>
  </defs>
  <!-- Generator: Adobe Illustrator 28.6.0, SVG Export Plug-In . SVG Version: 1.2.0 Build 709)  -->
  <g>
    <g id="Layer_1">
      <rect class="cls-1" x=".5" y=".5" width="142" height="37"/>
    </g>
    <g id="Layer_2">
      <g>
        <g>
          <path class="cls-2" d="M57,19.7h-1.3v-5.1c1.6,0,2.9,0,2.9,1.8s.1,3.3-1.6,3.3M50.2,34h8.4c6,0,6-5.6,6-7.6s0-3.9-3-4.9c2.7-1.5,2.4-4.7,2.4-6.2s0-4.9-5.3-4.9h-8.5v23.6M55.7,29.8v-6c2.2,0,3.2,0,3.2,2.8s-.8,3.2-3.2,3.2Z"/>
          <path class="cls-2" d="M72,18.4c1,0,1,1.3,1,1.7v8.7c0,.5,0,1.7-1,1.7s-1.1-1.2-1.1-1.7v-8.9c0-.4,0-1.7,1.1-1.7M72.1,34.5c6.1,0,6.1-5,6.1-5.5v-7.8c0-1.9,0-6.3-6.1-6.3s-6.3,4.4-6.3,5.5v8.5c0,.9,0,5.5,6.3,5.5Z"/>
          <path class="cls-2" d="M122.3,15.4h1.1v-3.9h5.2v3.9h1.4v3.8h-1.4v9.4c0,1.9.3,1.7,1.4,1.8v3.6c-.5.3-2,.3-2.6.3-1.5,0-3.9-.4-3.9-3.9v-11.3h-1.1v-3.8Z"/>
          <path class="cls-2" d="M86.4,19c.8,0,.8,1.1.8,1.5v8.5c0,1.1-.3,1.6-.8,1.6s-1.3-.7-1.3-2.5v-6.8c0-.8.3-2.3,1.2-2.3M80,34h5.1v-1.7c.3.7,1.5,2.2,3.6,2.2,3.8,0,3.8-3.8,3.8-6.1v-8.6c0-1,0-4.9-3.8-4.9s-3.1,1.5-3.6,2.5v-6.9h-5.2v23.6Z"/>
          <path class="cls-2" d="M106.7,22.4h-5.1v-2.4s0-1.5-1.1-1.5-1,1.4-1,2.5v7.5c0,1.2,0,2.4,1,2.4s1.1-1.1,1.1-2.4v-2.5h5.1c0,4,.5,8.5-6.2,8.5s-6.3-4.9-6.3-6.8v-6.3c0-1.8,0-6.5,6.3-6.5s6.2,3.1,6.2,7.5Z"/>
          <path class="cls-2" d="M113.5,27.2c0-1.5,1.1-1.9,2.1-2.6v3.2c0,1.7-.1,2.4-1.2,2.4s-.9-.3-.9-1v-2M115.7,34h5.2v-13.8c0-3.7-3.1-5.1-6.2-5.1s-6.2,1.3-6.2,5.1v1.3h5.2v-1.6c0-.7.2-1.4,1.1-1.4s1.1.6,1.1,1.4c0,3.5-7.3,2.9-7.3,7.8v2.8c0,2.4,1.4,3.8,3.6,3.8s3-1.1,3.6-2.4h0v2.2Z"/>
        </g>
        <g>
          <path class="cls-2" d="M30.3,23.3c0,0-1.2-2-.5-5.1,0,0,1.5.4,3,.3,2.7-.3,3.7-2.2,3.7-2.2,0,0-.4-1.2-1.1-1.9,0,0,2.1-.6,4.5-4.1,2.1-2.9,2.4-5.7,2.4-5.7,0,0-2.1,2.1-5,3.7-3,1.6-4.5,1.8-5,2.4-.2.3-.7.7-.7.7,0,0-3.7-1.8-7.5-2.2-2.8-.3-4.5,0-5.3.2,0,0,0-.6-.6-.8-1.5-.5-6.2-1.9-7.8-7.2,0,0-.7,8.6,4.3,12.3,3.1,2.2,7.1,3.4,9.7,3.8.9.1,2.2.2,2.2.2-.3,1.1-.8,2.2-1.1,2.7s-.6.9-2.1.8c-1.5-.1-2.4-.2-3.1-1.1s-1.1-2.5-1.7-3.2c-.4-.5-2-.6-4.6-2.7,0,0-1.9,1.9-3.1,3.6-1.1,1.6-1.9,3.7-2,3.9l3.4,3.2s2.2-.7,3.8-.9c1.3-.2,3.5-.3,3.5-.3,0,0,0,.4.3.9.3.8.8,1.8,2.3,2.2,2.8.7,4.7-.5,5.3-1,0,0,.2-.2.2-.2,0,0-1.8-1-1.7-1.9,0-.6,1.1-.4,1.4-.7.2-.2.3-.2.7-.2h.7c.3,0,.5,0,.7.2.1.1.4.2.8.2Z"/>
          <path class="cls-2" d="M35.2,25.1c0-.4,0-.7,0-.9,0-.2,0-.4,0-.4,0,0,1.8,0,2.9.4,0,0-.6-.7-.8-1.5,0-.3-.4-1.5-.5-3,0-.9,0-2.4,0-2.4,0,0-.4.5-.8.9-.2.2-.2.3-.3.6,0,.6.2,1.8-1,2.6-1.9,1.4-4.2.4-4.2.4,0,0,.3.9.6,1.5.1.3,0,.5-.4,1-.4.6-1.5,1.3-1.5,1.3,0,0,.1.2.2.2.4.4,1.6,1.4,3.3,1.2,1.9-.2,2.3-1.2,2.5-2Z"/>
          <path class="cls-2" d="M27.6,32.5c-1,.4-2.1.3-2.7-.5-.7-1-.5-1.6-.5-1.6,0,0-.3.3-.4.9-.1.5,0,1.1,0,1.2h-1.7s-.3.6-.4,1.7c0,.7.1,1.8.1,1.8.4.1,1.1.3,1.9.4,1.2,0,1.7,0,2.7,0,1,0,1.5-.6,1.7-1.4.3-1.1-.2-1.6-.2-1.6,0,0,.3-.5.4-.9.1-.4,0-.6,0-.6,0,0-.4.6-.9.8Z"/>
          <path class="cls-2" d="M37.5,29.2c-.9-.7-1.8-1.3-2.8-1.8-.3.2-.7.4-1.1.5,1.6.5,3,1.3,4.3,2.4l.4-.4c-.2-.3-.5-.5-.8-.7Z"/>
          <path class="cls-2" d="M35.8,26.2c-.1.2-.3.5-.5.7,1.5.4,2.9,1.1,4.1,2l.4-.4c-.6-.6-1.3-1-2-1.5-.6-.4-1.3-.7-2-.9Z"/>
          <path class="cls-2" d="M36.1,24.7c0,.3,0,.6-.1.9.1,0,.3,0,.4.1,1.5.4,3,1.1,4.3,2l.4-.4c-.6-.6-1.3-1-2-1.5-.9-.5-2-.9-3-1.2Z"/>
          <path class="cls-2" d="M15,26.2c.7-.2,1.6-.3,2.3-.4.6,0,1.3,0,2-.1-.1-.3-.2-.6-.3-.9,0,0,0,0,0,0-3.5.1-7,1.2-9.8,3.2l.4.4c.1,0,.2-.1.3-.2,1.6-.9,3.3-1.5,5.1-1.9Z"/>
          <path class="cls-2" d="M19.1,27.3c.4,0,.8-.2,1.2-.3-.3-.3-.5-.5-.7-.8-2.9.7-5.8,2-8.1,3.9l.4.4c1.5-1.1,3.2-1.9,4.9-2.5.7-.3,1.5-.5,2.3-.7Z"/>
          <path class="cls-2" d="M21,27.6c-.2.1-.5.2-.7.3-2.3,1.1-4.5,2.5-6.3,4.5l.4.4s0,0,0,0c.6-.5,1.2-1,1.8-1.5.4-.3.9-.6,1.3-.9,1.4-.9,3-1.7,4.6-2.3-.4-.1-.8-.3-1.1-.5Z"/>
          <path class="cls-2" d="M26,28.9c.2-.6.3-1.1.4-1.3-.4.2-.9.4-1.4.5,0,.3,0,.6.1.7,0,.7.3,1.5.3,1.5,0,0,.3-.4.6-1.4Z"/>
          <path class="cls-2" d="M29.9,28.7c-.2.9-.9,1.7-.9,1.7,0,0,.7,0,1.6-1.2.4-.4.5-1,.6-1.3-.6-.2-1-.4-1.4-.6,0,.3.1.9,0,1.4Z"/>
        </g>
      </g>
    </g>
  </g>
</svg>